<?xml version="1.0" encoding="utf-8"?>
<!-- Generator: Adobe Illustrator 16.2.1, SVG Export Plug-In . SVG Version: 6.00 Build 0)  -->
<!DOCTYPE svg PUBLIC "-//W3C//DTD SVG 1.1//EN" "http://www.w3.org/Graphics/SVG/1.1/DTD/svg11.dtd">
<svg version="1.1" id="圖層_1" xmlns="http://www.w3.org/2000/svg" xmlns:xlink="http://www.w3.org/1999/xlink" x="0px" y="0px"
	 width="32px" height="32px" viewBox="0 0 32 32" enable-background="new 0 0 32 32" xml:space="preserve">
<g>
	<path fill="none" stroke="#000000" stroke-width="2" stroke-linecap="round" stroke-linejoin="round" d="M6,14
		c0-2.652,1.054-5.196,2.929-7.071C10.804,5.054,13.348,4,16,4s5.195,1.054,7.071,2.929C24.946,8.804,26,11.348,26,14"/>
	<path fill="none" stroke="#000000" stroke-width="2" stroke-linecap="round" stroke-linejoin="round" d="M11.2,14
		c0.461-2.259,1.688-4.289,3.474-5.747C16.46,6.795,18.695,6,21,6c0.359,0,0.719,0.02,1.076,0.058"/>
	<path fill="none" stroke="#000000" stroke-width="2" stroke-linecap="round" stroke-linejoin="round" d="M16.832,14
		c0.652-1.49,1.656-2.799,2.927-3.814c1.271-1.015,2.769-1.705,4.366-2.011"/>
	<path fill="none" stroke="#000000" stroke-width="2" stroke-linecap="round" stroke-linejoin="round" d="M11,24.912
		c-2.089-0.957-3.859-2.494-5.101-4.43C4.659,18.549,4,16.298,4,14h24c0,2.298-0.658,4.549-1.899,6.482
		c-1.241,1.936-3.011,3.473-5.101,4.43V26c0,0.266-0.105,0.52-0.293,0.707S20.266,27,20,27h-8c-0.265,0-0.52-0.105-0.707-0.293
		S11,26.266,11,26V24.912z"/>
</g>
</svg>
