<?xml version="1.0" encoding="utf-8"?>
<!-- Generator: Adobe Illustrator 16.2.1, SVG Export Plug-In . SVG Version: 6.00 Build 0)  -->
<!DOCTYPE svg PUBLIC "-//W3C//DTD SVG 1.1//EN" "http://www.w3.org/Graphics/SVG/1.1/DTD/svg11.dtd">
<svg version="1.1" id="圖層_1" xmlns="http://www.w3.org/2000/svg" xmlns:xlink="http://www.w3.org/1999/xlink" x="0px" y="0px"
	 width="32px" height="32px" viewBox="0 0 32 32" enable-background="new 0 0 32 32" xml:space="preserve">
<g>
	<path fill="none" stroke="#000000" stroke-width="2" stroke-linecap="round" stroke-linejoin="round" d="M23,9h-5l-5.708,5.536
		c-0.106,0.106-0.187,0.235-0.237,0.376s-0.067,0.292-0.05,0.441s0.066,0.292,0.146,0.419c0.08,0.127,0.187,0.235,0.313,0.315
		C14.654,17.487,17.625,17.391,20,15l5,4l2-2"/>
	<path fill="none" stroke="#000000" stroke-width="2" stroke-linecap="round" stroke-linejoin="round" d="M25,19l-5,5l-8-2l-7-5"/>
	<path fill="none" stroke="#000000" stroke-width="2" stroke-linecap="round" stroke-linejoin="round" d="M7,24l3,2l4,1"/>
	<path fill="none" stroke="#000000" stroke-width="2" stroke-linecap="round" stroke-linejoin="round" d="M9,9l7-2l7,2"/>
	<path fill="none" stroke="#000000" stroke-width="2" stroke-linecap="round" stroke-linejoin="round" d="M4.553,7.895l-3.105,6.21
		c-0.059,0.118-0.094,0.246-0.104,0.376c-0.009,0.131,0.007,0.263,0.049,0.388c0.042,0.125,0.107,0.24,0.193,0.339
		c0.086,0.099,0.191,0.18,0.309,0.239L5,17l4-8L5.895,7.447C5.777,7.389,5.649,7.354,5.519,7.344
		C5.387,7.335,5.256,7.352,5.131,7.393C5.006,7.435,4.891,7.5,4.792,7.586C4.692,7.673,4.611,7.777,4.553,7.895z"/>
	<path fill="none" stroke="#000000" stroke-width="2" stroke-linecap="round" stroke-linejoin="round" d="M26.105,7.447L23,9l4,8
		l3.105-1.553c0.117-0.059,0.223-0.14,0.309-0.239c0.086-0.1,0.151-0.215,0.193-0.339c0.041-0.125,0.058-0.256,0.049-0.388
		c-0.01-0.131-0.045-0.259-0.104-0.376l-3.105-6.21c-0.059-0.118-0.14-0.222-0.239-0.309c-0.099-0.086-0.214-0.152-0.339-0.193
		s-0.256-0.058-0.388-0.049C26.351,7.354,26.223,7.389,26.105,7.447z"/>
</g>
</svg>
