<?xml version="1.0" encoding="utf-8"?>
<!-- Generator: Adobe Illustrator 16.2.1, SVG Export Plug-In . SVG Version: 6.00 Build 0)  -->
<!DOCTYPE svg PUBLIC "-//W3C//DTD SVG 1.1//EN" "http://www.w3.org/Graphics/SVG/1.1/DTD/svg11.dtd">
<svg version="1.1" id="圖層_1" xmlns="http://www.w3.org/2000/svg" xmlns:xlink="http://www.w3.org/1999/xlink" x="0px" y="0px"
	 width="32px" height="32px" viewBox="0 0 32 32" enable-background="new 0 0 32 32" xml:space="preserve">
<g>
	<path fill="none" stroke="#000000" stroke-width="2" stroke-linecap="round" stroke-linejoin="round" d="M25.5,14
		c1.934,0,3.5-1.567,3.5-3.5S27.434,7,25.5,7S22,8.567,22,10.5S23.566,14,25.5,14z"/>
	<path fill="none" stroke="#000000" stroke-width="2" stroke-linecap="round" stroke-linejoin="round" d="M6,26H2
		c-0.265,0-0.52-0.105-0.707-0.293S1,25.266,1,25v-5c0-0.266,0.105-0.52,0.293-0.707S1.735,19,2,19h4"/>
	<path fill="none" stroke="#000000" stroke-width="2" stroke-linecap="round" stroke-linejoin="round" d="M14,20h4l8.375-1.926
		c0.309-0.085,0.631-0.098,0.944-0.036c0.313,0.061,0.608,0.193,0.862,0.387s0.461,0.442,0.602,0.729
		c0.143,0.285,0.217,0.6,0.217,0.92c0,0.385-0.107,0.763-0.31,1.091c-0.203,0.328-0.493,0.593-0.838,0.765L23,24l-8,2H6v-7
		l3.125-3.125c0.279-0.278,0.611-0.499,0.976-0.649c0.364-0.15,0.755-0.227,1.149-0.226h6.25c0.663,0,1.299,0.264,1.768,0.732
		S20,16.837,20,17.5s-0.264,1.299-0.732,1.768S18.163,20,17.5,20H14z"/>
	<path fill="none" stroke="#000000" stroke-width="2" stroke-linecap="round" stroke-linejoin="round" d="M22,10.661
		c-0.68,0.321-1.443,0.416-2.181,0.269s-1.407-0.527-1.911-1.084s-0.816-1.262-0.889-2.01s0.098-1.5,0.485-2.143
		c0.388-0.644,0.972-1.146,1.667-1.432c0.695-0.286,1.463-0.341,2.191-0.156s1.379,0.599,1.854,1.182
		C23.691,5.868,23.966,6.588,24,7.339"/>
</g>
</svg>
