<?xml version="1.0" encoding="utf-8"?>
<!-- Generator: Adobe Illustrator 16.2.1, SVG Export Plug-In . SVG Version: 6.00 Build 0)  -->
<!DOCTYPE svg PUBLIC "-//W3C//DTD SVG 1.1//EN" "http://www.w3.org/Graphics/SVG/1.1/DTD/svg11.dtd">
<svg version="1.1" id="圖層_1" xmlns="http://www.w3.org/2000/svg" xmlns:xlink="http://www.w3.org/1999/xlink" x="0px" y="0px"
	 width="32px" height="32px" viewBox="0 0 32 32" enable-background="new 0 0 32 32" xml:space="preserve">
<g>
	<path fill="none" stroke="#000000" stroke-width="2" stroke-miterlimit="10" d="M16,21c2.762,0,5-2.238,5-5c0-2.761-2.238-5-5-5
		c-2.761,0-5,2.239-5,5C11,18.762,13.239,21,16,21z"/>
	<path fill="none" stroke="#000000" stroke-width="2" stroke-linecap="round" stroke-linejoin="round" d="M22,4H10
		c-3.313,0-6,2.687-6,6v12c0,3.313,2.687,6,6,6h12c3.313,0,6-2.687,6-6V10C28,6.687,25.313,4,22,4z"/>
	<path d="M22.5,11c0.828,0,1.5-0.672,1.5-1.5C24,8.671,23.328,8,22.5,8S21,8.671,21,9.5C21,10.328,21.672,11,22.5,11z"/>
</g>
</svg>
