<?xml version="1.0" encoding="utf-8"?>
<!-- Generator: Adobe Illustrator 16.2.1, SVG Export Plug-In . SVG Version: 6.00 Build 0)  -->
<!DOCTYPE svg PUBLIC "-//W3C//DTD SVG 1.1//EN" "http://www.w3.org/Graphics/SVG/1.1/DTD/svg11.dtd">
<svg version="1.1" id="圖層_1" xmlns="http://www.w3.org/2000/svg" xmlns:xlink="http://www.w3.org/1999/xlink" x="0px" y="0px"
	 width="128px" height="129px" viewBox="0 0 128 129" enable-background="new 0 0 128 129" xml:space="preserve">
<g>
	<path fill="none" stroke="#C6C6C6" stroke-width="5" stroke-linecap="round" stroke-linejoin="round" d="M104,60.5v-24"/>
	<path fill="none" stroke="#C6C6C6" stroke-width="5" stroke-linecap="round" stroke-linejoin="round" d="M116,48.5H92"/>
	<path fill="none" stroke="#C6C6C6" stroke-width="5" stroke-linecap="round" stroke-linejoin="round" d="M80,16.5v16"/>
	<path fill="none" stroke="#C6C6C6" stroke-width="5" stroke-linecap="round" stroke-linejoin="round" d="M88,24.5H72"/>
	<path fill="none" stroke="#C6C6C6" stroke-width="5" stroke-linecap="round" stroke-linejoin="round" d="M105.346,79.59
		c-3.078,0.605-6.209,0.91-9.346,0.91c-7.094-0.006-14.1-1.583-20.512-4.618c-6.412-3.034-12.072-7.452-16.574-12.935
		c-4.502-5.483-7.734-11.896-9.464-18.774c-1.729-6.88-1.914-14.058-0.54-21.018c-6.943,2.539-13.135,6.786-18.002,12.35
		c-4.868,5.563-8.256,12.264-9.851,19.483c-1.595,7.218-1.345,14.723,0.727,21.819c2.071,7.098,5.897,13.558,11.125,18.785
		c5.228,5.227,11.688,9.053,18.784,11.124c7.096,2.071,14.6,2.321,21.819,0.728c7.219-1.596,13.92-4.982,19.483-9.852
		C98.559,92.725,102.807,86.533,105.346,79.59z"/>
</g>
</svg>
