<?xml version="1.0" encoding="utf-8"?>
<!-- Generator: Adobe Illustrator 16.2.1, SVG Export Plug-In . SVG Version: 6.00 Build 0)  -->
<!DOCTYPE svg PUBLIC "-//W3C//DTD SVG 1.1//EN" "http://www.w3.org/Graphics/SVG/1.1/DTD/svg11.dtd">
<svg version="1.1" id="圖層_1" xmlns="http://www.w3.org/2000/svg" xmlns:xlink="http://www.w3.org/1999/xlink" x="0px" y="0px"
	 width="32px" height="32px" viewBox="0 0 32 32" enable-background="new 0 0 32 32" xml:space="preserve">
<g>
	<path fill="none" stroke="#000000" stroke-width="2" stroke-linecap="round" stroke-linejoin="round" d="M26.5,16
		c1.381,0,2.5-1.119,2.5-2.5S27.881,11,26.5,11S24,12.119,24,13.5S25.119,16,26.5,16z"/>
	<path fill="none" stroke="#000000" stroke-width="2" stroke-linecap="round" stroke-linejoin="round" d="M5.5,16
		C6.881,16,8,14.881,8,13.5S6.881,11,5.5,11S3,12.119,3,13.5S4.119,16,5.5,16z"/>
	<path fill="none" stroke="#000000" stroke-width="2" stroke-linecap="round" stroke-linejoin="round" d="M11.5,10
		c1.381,0,2.5-1.119,2.5-2.5S12.881,5,11.5,5S9,6.119,9,7.5S10.119,10,11.5,10z"/>
	<path fill="none" stroke="#000000" stroke-width="2" stroke-linecap="round" stroke-linejoin="round" d="M20.5,10
		c1.381,0,2.5-1.119,2.5-2.5S21.881,5,20.5,5S18,6.119,18,7.5S19.119,10,20.5,10z"/>
	<path fill="none" stroke="#000000" stroke-width="2" stroke-linecap="round" stroke-linejoin="round" d="M16,13
		c-0.975,0-1.924,0.317-2.703,0.904c-0.779,0.586-1.347,1.409-1.618,2.346c-0.4,1.378-1.329,2.541-2.583,3.237
		c-0.911,0.485-1.599,1.305-1.92,2.286c-0.321,0.98-0.25,2.049,0.197,2.979s1.238,1.65,2.205,2.012
		c0.967,0.361,2.036,0.335,2.984-0.074c2.203-0.902,4.672-0.902,6.875,0c0.949,0.409,2.018,0.436,2.984,0.074
		s1.758-1.082,2.205-2.012s0.518-1.998,0.197-2.979c-0.321-0.981-1.009-1.801-1.92-2.286c-1.254-0.696-2.182-1.86-2.581-3.237
		c-0.271-0.937-0.839-1.76-1.618-2.346C17.924,13.317,16.975,13,16,13z"/>
</g>
</svg>
