<?xml version="1.0" encoding="utf-8"?>
<!-- Generator: Adobe Illustrator 16.2.1, SVG Export Plug-In . SVG Version: 6.00 Build 0)  -->
<!DOCTYPE svg PUBLIC "-//W3C//DTD SVG 1.1//EN" "http://www.w3.org/Graphics/SVG/1.1/DTD/svg11.dtd">
<svg version="1.1" id="圖層_1" xmlns="http://www.w3.org/2000/svg" xmlns:xlink="http://www.w3.org/1999/xlink" x="0px" y="0px"
	 width="18px" height="18px" viewBox="0 0 32 32" enable-background="new 0 0 32 32" xml:space="preserve">
<g>
	<path fill="none" stroke="#D1FA31" stroke-width="2" stroke-linecap="round" stroke-linejoin="round" d="M20.549,18.168
		c0.139-0.093,0.298-0.148,0.463-0.164c0.166-0.015,0.333,0.012,0.486,0.077l5.895,2.642c0.199,0.085,0.364,0.231,0.473,0.419
		c0.107,0.187,0.152,0.403,0.127,0.618c-0.193,1.451-0.908,2.783-2.011,3.746C24.879,26.471,23.465,27.001,22,27
		c-4.509,0-8.833-1.791-12.021-4.979C6.791,18.832,5,14.509,5,10C4.999,8.536,5.53,7.121,6.494,6.019
		c0.964-1.102,2.295-1.817,3.747-2.011c0.214-0.025,0.431,0.02,0.618,0.127c0.187,0.108,0.334,0.274,0.419,0.473l2.642,5.9
		c0.064,0.152,0.091,0.317,0.077,0.481c-0.014,0.165-0.069,0.322-0.159,0.46l-2.671,3.176c-0.095,0.143-0.151,0.308-0.163,0.479
		c-0.012,0.171,0.021,0.343,0.095,0.497c1.034,2.117,3.221,4.278,5.344,5.301c0.155,0.074,0.328,0.105,0.499,0.094
		c0.171-0.014,0.337-0.071,0.479-0.168L20.549,18.168z"/>
</g>
</svg>
