<?xml version="1.0" encoding="utf-8"?>
<!-- Generator: Adobe Illustrator 16.2.1, SVG Export Plug-In . SVG Version: 6.00 Build 0)  -->
<!DOCTYPE svg PUBLIC "-//W3C//DTD SVG 1.1//EN" "http://www.w3.org/Graphics/SVG/1.1/DTD/svg11.dtd">
<svg version="1.1" id="圖層_1" xmlns="http://www.w3.org/2000/svg" xmlns:xlink="http://www.w3.org/1999/xlink" x="0px" y="0px"
	 width="32px" height="32px" viewBox="0 0 32 32" enable-background="new 0 0 32 32" xml:space="preserve">
<g>
	<path fill="none" stroke="#000000" stroke-width="2" stroke-linecap="round" stroke-linejoin="round" d="M21.1,3.393L23,7.821
		c0.047,0.108,0.123,0.202,0.219,0.271s0.209,0.11,0.326,0.12l4.859,0.414c0.127,0.008,0.248,0.054,0.35,0.132
		c0.1,0.078,0.176,0.184,0.216,0.305c0.04,0.121,0.044,0.25,0.01,0.373c-0.034,0.123-0.104,0.232-0.2,0.315l-3.691,3.146
		c-0.089,0.075-0.154,0.173-0.191,0.283c-0.037,0.11-0.043,0.229-0.017,0.342l1.104,4.682c0.027,0.125,0.019,0.254-0.027,0.373
		c-0.045,0.119-0.125,0.222-0.229,0.296s-0.227,0.116-0.354,0.121s-0.252-0.027-0.361-0.093l-4.178-2.484
		c-0.102-0.061-0.218-0.092-0.336-0.092s-0.234,0.032-0.336,0.092L15.986,18.9c-0.109,0.065-0.235,0.098-0.362,0.093
		c-0.127-0.005-0.25-0.047-0.354-0.121s-0.183-0.177-0.229-0.296s-0.055-0.248-0.027-0.373l1.11-4.676
		c0.025-0.113,0.02-0.231-0.017-0.341c-0.037-0.11-0.103-0.208-0.191-0.284L12.226,9.75c-0.097-0.083-0.167-0.192-0.201-0.315
		c-0.034-0.123-0.031-0.252,0.01-0.373c0.04-0.121,0.116-0.227,0.216-0.305c0.101-0.078,0.223-0.124,0.35-0.132l4.86-0.411
		c0.117-0.011,0.229-0.053,0.324-0.122C17.879,8.022,17.953,7.929,18,7.821l1.9-4.429c0.051-0.117,0.135-0.216,0.241-0.286
		S20.373,3,20.5,3s0.252,0.037,0.358,0.107S21.049,3.276,21.1,3.393z"/>
	<path fill="none" stroke="#000000" stroke-width="2" stroke-linecap="round" stroke-linejoin="round" d="M10,15l-7,7"/>
	<path fill="none" stroke="#000000" stroke-width="2" stroke-linecap="round" stroke-linejoin="round" d="M12,22l-7,7"/>
	<path fill="none" stroke="#000000" stroke-width="2" stroke-linecap="round" stroke-linejoin="round" d="M21,22l-7,7"/>
</g>
</svg>
