<?xml version="1.0" encoding="utf-8"?>
<!-- Generator: Adobe Illustrator 16.2.1, SVG Export Plug-In . SVG Version: 6.00 Build 0)  -->
<!DOCTYPE svg PUBLIC "-//W3C//DTD SVG 1.1//EN" "http://www.w3.org/Graphics/SVG/1.1/DTD/svg11.dtd">
<svg version="1.1" id="圖層_1" xmlns="http://www.w3.org/2000/svg" xmlns:xlink="http://www.w3.org/1999/xlink" x="0px" y="0px"
	 width="32px" height="32px" viewBox="0 0 32 32" enable-background="new 0 0 32 32" xml:space="preserve">
<g>
	<path fill="none" stroke="#000000" stroke-width="2" stroke-linecap="round" stroke-linejoin="round" d="M6,17.449V26
		c0,0.266,0.105,0.52,0.293,0.707S6.735,27,7,27h18c0.266,0,0.52-0.105,0.707-0.293S26,26.266,26,26v-8.551"/>
	<path fill="none" stroke="#000000" stroke-width="2" stroke-linecap="round" stroke-linejoin="round" d="M6.75,5h18.5
		c0.217,0,0.429,0.071,0.602,0.202c0.174,0.131,0.3,0.314,0.359,0.523L28,12H4l1.792-6.275c0.06-0.208,0.185-0.392,0.358-0.522
		C6.323,5.072,6.533,5.001,6.75,5z"/>
	<path fill="none" stroke="#000000" stroke-width="2" stroke-linecap="round" stroke-linejoin="round" d="M12,12v2
		c0,1.061-0.421,2.078-1.171,2.828C10.078,17.578,9.061,18,8,18s-2.078-0.422-2.829-1.172C4.421,16.078,4,15.061,4,14v-2"/>
	<path fill="none" stroke="#000000" stroke-width="2" stroke-linecap="round" stroke-linejoin="round" d="M20,12v2
		c0,1.061-0.422,2.078-1.172,2.828S17.061,18,16,18c-1.061,0-2.078-0.422-2.829-1.172C12.421,16.078,12,15.061,12,14v-2"/>
	<path fill="none" stroke="#000000" stroke-width="2" stroke-linecap="round" stroke-linejoin="round" d="M28,12v2
		c0,1.061-0.422,2.078-1.172,2.828S25.061,18,24,18s-2.078-0.422-2.828-1.172S20,15.061,20,14v-2"/>
</g>
</svg>
