<?xml version="1.0" encoding="utf-8"?>
<!-- Generator: Adobe Illustrator 16.2.1, SVG Export Plug-In . SVG Version: 6.00 Build 0)  -->
<!DOCTYPE svg PUBLIC "-//W3C//DTD SVG 1.1//EN" "http://www.w3.org/Graphics/SVG/1.1/DTD/svg11.dtd">
<svg version="1.1" id="圖層_1" xmlns="http://www.w3.org/2000/svg" xmlns:xlink="http://www.w3.org/1999/xlink" x="0px" y="0px"
	 width="32px" height="32px" viewBox="0 0 32 32" enable-background="new 0 0 32 32" xml:space="preserve">
<g>
	<path fill="none" stroke="#000000" stroke-width="2" stroke-linecap="round" stroke-linejoin="round" d="M20,16l-6-4v8L20,16z"/>
	<path fill="none" stroke="#000000" stroke-width="2" stroke-linecap="round" stroke-linejoin="round" d="M3,16
		c0,3.738,0.384,5.932,0.676,7.059c0.077,0.307,0.226,0.591,0.435,0.828c0.208,0.238,0.47,0.424,0.764,0.541
		C9.065,26.044,16,26,16,26s6.936,0.044,11.125-1.572c0.295-0.117,0.558-0.302,0.768-0.539c0.209-0.238,0.358-0.523,0.436-0.83
		c0.293-1.125,0.677-3.32,0.677-7.059c0-3.739-0.384-5.931-0.677-7.059c-0.076-0.309-0.226-0.594-0.436-0.833
		c-0.209-0.239-0.473-0.425-0.768-0.542C22.936,5.956,16,6,16,6S9.065,5.956,4.875,7.572C4.58,7.689,4.316,7.875,4.107,8.114
		C3.897,8.354,3.748,8.639,3.671,8.947C3.384,10.067,3,12.261,3,16z"/>
</g>
</svg>
